<?xml version="1.0" encoding="utf-8"?>
<!-- Generator: Adobe Illustrator 27.6.1, SVG Export Plug-In . SVG Version: 6.00 Build 0)  -->
<svg version="1.1" id="Layer_3" xmlns="http://www.w3.org/2000/svg" xmlns:xlink="http://www.w3.org/1999/xlink" x="0px" y="0px"
	 viewBox="0 0 32 32" style="enable-background:new 0 0 32 32;" xml:space="preserve">
<style type="text/css">
	.st0{fill:none;stroke:#FFFFFF;stroke-width:1.75;stroke-linecap:round;stroke-linejoin:round;stroke-miterlimit:10;}
	.st1{fill:none;stroke:#FFFFFF;stroke-width:1.75;stroke-miterlimit:10;}
	.st2{fill:#FFFFFF;}
	.st3{fill:#FFFFFF;stroke:#FFFFFF;stroke-width:1.75;stroke-miterlimit:10;}
</style>
<path class="st0" d="M4.9,17.2c0,6.1,5,11.1,11.1,11.1s11.1-5,11.1-11.1"/>
<circle class="st1" cx="16" cy="5.5" r="4.1"/>
<path class="st2" d="M15,9.9c0-0.6,0.4-1,1-1s1,0.4,1,1v20.7c0,0.6-0.4,1-1,1s-1-0.4-1-1V9.9z"/>
<path class="st2" d="M21.3,12.7c0.6,0,1,0.4,1,1c0,0.6-0.4,1-1,1H10.7c-0.6,0-1-0.4-1-1c0-0.6,0.4-1,1-1H21.3z"/>
<circle class="st3" cx="22.3" cy="13.7" r="1"/>
<circle class="st3" cx="9.7" cy="13.7" r="1"/>
</svg>
